<svg width="37" height="37" fill="none" xmlns="http://www.w3.org/2000/svg"><path d="M33.31 3.083l-12.848 9.522 2.387-5.611 10.461-3.91z" fill="#E17726"/><path d="M3.702 3.083l12.722 9.611-2.272-5.7-10.45-3.91zm24.987 22.079l-3.416 5.231 7.314 2.019 2.082-7.136-5.98-.114zm-26.345.114l2.07 7.136 7.312-2.019-3.402-5.23-5.98.113z" fill="#E27625"/><path d="M11.333 16.326l-2.044 3.072 7.25.33-.255-7.808-4.951 4.406zm14.347 0l-5.04-4.495-.178 7.897 7.25-.33-2.032-3.072zM11.726 30.393l4.368-2.12-3.758-2.946-.61 5.066zm9.18-2.12l4.368 2.12-.61-5.066-3.758 2.946z" fill="#E27625"/><path d="M25.274 30.393l-4.368-2.12.343 2.844-.038 1.193 4.063-1.917zm-13.548 0l4.063 1.917-.025-1.193.33-2.844-4.368 2.12z" fill="#D5BFB2"/><path d="M15.866 23.448l-3.632-1.066L14.8 21.2l1.067 2.247zm5.268 0l1.067-2.247 2.59 1.18-3.657 1.067z" fill="#233447"/><path d="M11.726 30.393l.635-5.23-4.037.113 3.402 5.117zm12.913-5.231l.634 5.231 3.416-5.117-4.05-.114zm3.072-5.764l-7.25.33.674 3.72 1.066-2.247 2.59 1.18 2.92-2.983zm-15.477 2.984l2.565-1.18 1.067 2.246.672-3.72-7.25-.33 2.946 2.984z" fill="#CC6228"/><path d="M9.289 19.398l3.047 5.93-.102-2.946-2.945-2.984zm15.502 2.984l-.127 2.945 3.047-5.929-2.92 2.984zm-8.253-2.654l-.672 3.72.85 4.393.178-5.79-.356-2.323zm3.924 0l-.343 2.31.165 5.803.85-4.393-.672-3.72z" fill="#E27525"/><path d="M21.134 23.448l-.85 4.393.622.432 3.758-2.946.127-2.945-3.657 1.066zm-8.9-1.066l.102 2.945 3.758 2.946.622-.432-.85-4.393-3.632-1.066z" fill="#F5841F"/><path d="M21.21 32.31l.039-1.193-.318-.28h-4.863l-.304.28.025 1.193-4.063-1.917 1.422 1.168 2.882 1.993h4.94l2.881-1.993 1.422-1.168-4.063 1.917z" fill="#C0AC9D"/><path d="M20.906 28.273l-.622-.432h-3.568l-.622.432-.33 2.844.305-.28h4.862l.318.28-.343-2.844z" fill="#161616"/><path d="M33.844 13.228l1.079-5.257-1.613-4.888-12.404 9.205 4.774 4.038 6.729 1.967 1.485-1.739-.647-.47 1.041-.94-.787-.621 1.028-.775-.685-.52zM2.077 7.971l1.092 5.257-.698.52 1.028.775-.787.622 1.041.94-.647.47 1.485 1.738 6.742-1.967 4.76-4.038-12.39-9.205-1.626 4.888z" fill="#763E1A"/><path d="M32.409 18.294l-6.73-1.968 2.032 3.072-3.047 5.93 4.025-.051h5.98l-2.26-6.983zm-21.076-1.968L4.59 18.294l-2.247 6.983h5.98l4.012.05-3.047-5.929 2.044-3.072zm9.128 3.402l.445-7.44 1.942-5.294h-8.697l1.943 5.294.444 7.44.165 2.336.013 5.777h3.568l.012-5.777.165-2.336z" fill="#F5841F"/></svg>